<svg width="320" height="320" viewBox="0 0 320 320" fill="none" xmlns="http://www.w3.org/2000/svg">
<rect width="320" height="320" rx="160" fill="black"/>
<path fill-rule="evenodd" clip-rule="evenodd" d="M302.578 161.625L170.781 103.428L163.48 119.962L207.774 139.521C210.643 145.77 212.245 152.725 212.245 160.071C212.245 167.823 210.46 175.142 207.285 181.654L163.606 199.806L170.542 216.497L207.085 201.31L207.114 201.38L220.27 195.912L220.241 195.843L302.578 161.625ZM230.319 160.071C230.319 156.332 230.014 152.66 229.426 149.082L256.692 161.121L229.162 172.562C229.922 168.511 230.319 164.335 230.319 160.071Z" fill="white"/>
<path fill-rule="evenodd" clip-rule="evenodd" d="M156.543 119.962L149.242 103.428L17.4443 161.625L99.7819 195.843L99.753 195.912L112.908 201.38L112.937 201.31L149.48 216.497L156.417 199.806L112.738 181.654C109.562 175.142 107.778 167.823 107.778 160.071C107.778 152.725 109.38 145.77 112.249 139.521L156.543 119.962ZM90.8606 172.562L63.3302 161.121L90.5964 149.082C90.009 152.66 89.7039 156.332 89.7039 160.071C89.7039 164.335 90.1008 168.511 90.8606 172.562Z" fill="white"/>
</svg>
