<svg width="46" height="18" fill="none" xmlns="http://www.w3.org/2000/svg">
<path fill-rule="evenodd" clip-rule="evenodd" d="M20.6529 1L20.9943 1.77364L4.14592 9.21704L13.1713 12.9698C12.656 11.7536 12.3709 10.416 12.3709 9.01176C12.3709 7.69607 12.6212 6.43886 13.0766 5.28517L14.2351 4.77339C13.5837 6.04447 13.2162 7.48517 13.2162 9.01176C13.2162 10.6221 13.6251 12.1368 14.3448 13.4577L20.9858 16.219L20.6614 17L2 9.2406L20.6529 1ZM25.3471 1L25.0057 1.77364L41.8541 9.21704L32.8287 12.9698C33.344 11.7536 33.6291 10.416 33.6291 9.01176C33.6291 7.69607 33.3788 6.43886 32.9234 5.28517L31.7649 4.77339C32.4163 6.04447 32.7838 7.48517 32.7838 9.01176C32.7838 10.6221 32.3749 12.1368 31.6552 13.4577L25.0142 16.219L25.3386 17L44 9.2406L25.3471 1Z" fill="#98949B"/>
<path d="M15.1845 14.7363L13.7622 14.1449M30.8155 14.7363L32.2378 14.1449M20.9943 1.77364L20.6529 1L2 9.2406L20.6614 17L20.9858 16.219L14.3448 13.4577C13.6251 12.1368 13.2162 10.6221 13.2162 9.01176C13.2162 7.48517 13.5837 6.04447 14.2351 4.77339L13.0766 5.28517C12.6212 6.43886 12.3709 7.69607 12.3709 9.01176C12.3709 10.416 12.656 11.7536 13.1713 12.9698L4.14592 9.21704L20.9943 1.77364ZM25.0057 1.77364L25.3471 1L44 9.2406L25.3386 17L25.0142 16.219L31.6552 13.4577C32.3749 12.1368 32.7838 10.6221 32.7838 9.01176C32.7838 7.48517 32.4163 6.04447 31.7649 4.77339L32.9234 5.28517C33.3788 6.43886 33.6291 7.69607 33.6291 9.01176C33.6291 10.416 33.344 11.7536 32.8287 12.9698L41.8541 9.21704L25.0057 1.77364Z" stroke="#555555"/>
</svg>
